<svg width="133" height="151" viewBox="0 0 133 151" fill="none" xmlns="http://www.w3.org/2000/svg">
<path fill-rule="evenodd" clip-rule="evenodd" d="M65.0414 96.7358L31.2174 77.2075L0.000133514 131.277L25.086 126.884L33.8239 150.806L65.0414 96.7358Z" fill="#525252"/>
<path fill-rule="evenodd" clip-rule="evenodd" d="M67.9583 92.8301L101.782 73.3018L133 127.372L107.914 122.978L99.1759 146.9L67.9583 92.8301Z" fill="#525252"/>
<circle cx="64.8339" cy="61.5849" r="58.5849" fill="white" stroke="#525252" stroke-width="5.46792"/>
<circle cx="64.4433" cy="61.1942" r="51.1641" stroke="#525252" stroke-width="3.12453"/>
<path d="M42.4325 32H37.6445V23.432H42.4325V24.38H38.7245V27.056H42.2165V27.992H38.7245V31.052H42.4325V32ZM47.9844 24.26C47.5284 24.26 47.1164 24.34 46.7484 24.5C46.3804 24.652 46.0684 24.88 45.8124 25.184C45.5564 25.48 45.3604 25.844 45.2244 26.276C45.0884 26.7 45.0204 27.18 45.0204 27.716C45.0204 28.42 45.1284 29.032 45.3444 29.552C45.5684 30.072 45.8964 30.472 46.3284 30.752C46.7684 31.032 47.3164 31.172 47.9724 31.172C48.3484 31.172 48.7044 31.14 49.0404 31.076C49.3764 31.012 49.7044 30.932 50.0244 30.836V31.772C49.7044 31.892 49.3724 31.98 49.0284 32.036C48.6924 32.092 48.2884 32.12 47.8164 32.12C46.9444 32.12 46.2164 31.94 45.6324 31.58C45.0484 31.22 44.6084 30.708 44.3124 30.044C44.0244 29.38 43.8804 28.6 43.8804 27.704C43.8804 27.056 43.9684 26.464 44.1444 25.928C44.3284 25.392 44.5924 24.928 44.9364 24.536C45.2884 24.144 45.7204 23.844 46.2324 23.636C46.7444 23.42 47.3324 23.312 47.9964 23.312C48.4364 23.312 48.8604 23.356 49.2684 23.444C49.6764 23.532 50.0404 23.656 50.3604 23.816L49.9284 24.728C49.6644 24.608 49.3684 24.5 49.0404 24.404C48.7204 24.308 48.3684 24.26 47.9844 24.26ZM55.3321 24.26C54.8761 24.26 54.4641 24.34 54.0961 24.5C53.7281 24.652 53.4161 24.88 53.1601 25.184C52.9041 25.48 52.7081 25.844 52.5721 26.276C52.4361 26.7 52.3681 27.18 52.3681 27.716C52.3681 28.42 52.4761 29.032 52.6921 29.552C52.9161 30.072 53.2441 30.472 53.6761 30.752C54.1161 31.032 54.6641 31.172 55.3201 31.172C55.6961 31.172 56.0521 31.14 56.3881 31.076C56.7241 31.012 57.0521 30.932 57.3721 30.836V31.772C57.0521 31.892 56.7201 31.98 56.3761 32.036C56.0401 32.092 55.6361 32.12 55.1641 32.12C54.2921 32.12 53.5641 31.94 52.9801 31.58C52.3961 31.22 51.9561 30.708 51.6601 30.044C51.3721 29.38 51.2281 28.6 51.2281 27.704C51.2281 27.056 51.3161 26.464 51.4921 25.928C51.6761 25.392 51.9401 24.928 52.2841 24.536C52.6361 24.144 53.0681 23.844 53.5801 23.636C54.0921 23.42 54.6801 23.312 55.3441 23.312C55.7841 23.312 56.2081 23.356 56.6161 23.444C57.0241 23.532 57.3881 23.656 57.7081 23.816L57.2761 24.728C57.0121 24.608 56.7161 24.5 56.3881 24.404C56.0681 24.308 55.7161 24.26 55.3321 24.26ZM68.1317 32H63.3437V23.432H68.1317V24.38H64.4237V27.056H67.9157V27.992H64.4237V31.052H68.1317V32ZM75.8317 32H74.6077L72.3397 28.28L70.0357 32H68.8957L71.7397 27.536L69.0757 23.432H70.2757L72.3757 26.792L74.4877 23.432H75.6277L72.9757 27.512L75.8317 32ZM79.3109 23.432C80.4309 23.432 81.2469 23.652 81.7589 24.092C82.2709 24.532 82.5269 25.152 82.5269 25.952C82.5269 26.304 82.4669 26.644 82.3469 26.972C82.2349 27.292 82.0469 27.58 81.7829 27.836C81.5189 28.092 81.1669 28.296 80.7269 28.448C80.2869 28.592 79.7469 28.664 79.1069 28.664H78.1229V32H77.0429V23.432H79.3109ZM79.2149 24.356H78.1229V27.74H78.9869C79.5309 27.74 79.9829 27.684 80.3429 27.572C80.7029 27.452 80.9709 27.264 81.1469 27.008C81.3229 26.752 81.4109 26.416 81.4109 26C81.4109 25.448 81.2349 25.036 80.8829 24.764C80.5309 24.492 79.9749 24.356 79.2149 24.356ZM91.7845 27.704C91.7845 28.368 91.7005 28.972 91.5325 29.516C91.3645 30.052 91.1125 30.516 90.7765 30.908C90.4485 31.3 90.0365 31.6 89.5405 31.808C89.0525 32.016 88.4845 32.12 87.8365 32.12C87.1645 32.12 86.5805 32.016 86.0845 31.808C85.5885 31.592 85.1765 31.292 84.8485 30.908C84.5205 30.516 84.2765 30.048 84.1165 29.504C83.9565 28.96 83.8765 28.356 83.8765 27.692C83.8765 26.812 84.0205 26.044 84.3085 25.388C84.5965 24.732 85.0325 24.22 85.6165 23.852C86.2085 23.484 86.9525 23.3 87.8485 23.3C88.7045 23.3 89.4245 23.484 90.0085 23.852C90.5925 24.212 91.0325 24.724 91.3285 25.388C91.6325 26.044 91.7845 26.816 91.7845 27.704ZM85.0165 27.704C85.0165 28.424 85.1165 29.044 85.3165 29.564C85.5165 30.084 85.8245 30.484 86.2405 30.764C86.6645 31.044 87.1965 31.184 87.8365 31.184C88.4845 31.184 89.0125 31.044 89.4205 30.764C89.8365 30.484 90.1445 30.084 90.3445 29.564C90.5445 29.044 90.6445 28.424 90.6445 27.704C90.6445 26.624 90.4205 25.78 89.9725 25.172C89.5245 24.556 88.8165 24.248 87.8485 24.248C87.2005 24.248 86.6645 24.388 86.2405 24.668C85.8245 24.94 85.5165 25.336 85.3165 25.856C85.1165 26.368 85.0165 26.984 85.0165 27.704ZM57.0056 45H51.3416V44.124L53.5856 41.856C54.0176 41.424 54.3816 41.04 54.6776 40.704C54.9736 40.368 55.1976 40.04 55.3496 39.72C55.5016 39.392 55.5776 39.036 55.5776 38.652C55.5776 38.18 55.4376 37.824 55.1576 37.584C54.8776 37.336 54.5136 37.212 54.0656 37.212C53.6496 37.212 53.2816 37.284 52.9616 37.428C52.6496 37.572 52.3296 37.772 52.0016 38.028L51.4376 37.32C51.6616 37.128 51.9056 36.956 52.1696 36.804C52.4416 36.652 52.7336 36.532 53.0456 36.444C53.3656 36.356 53.7056 36.312 54.0656 36.312C54.6016 36.312 55.0616 36.404 55.4456 36.588C55.8296 36.772 56.1256 37.036 56.3336 37.38C56.5496 37.716 56.6576 38.12 56.6576 38.592C56.6576 38.928 56.6056 39.248 56.5016 39.552C56.3976 39.848 56.2496 40.14 56.0576 40.428C55.8656 40.716 55.6336 41.008 55.3616 41.304C55.0896 41.6 54.7896 41.908 54.4616 42.228L52.6736 43.992V44.04H57.0056V45ZM63.9088 40.704C63.9088 41.4 63.8568 42.02 63.7528 42.564C63.6488 43.108 63.4808 43.572 63.2488 43.956C63.0248 44.332 62.7288 44.62 62.3608 44.82C62.0008 45.02 61.5648 45.12 61.0528 45.12C60.4128 45.12 59.8808 44.944 59.4568 44.592C59.0408 44.24 58.7288 43.736 58.5208 43.08C58.3208 42.416 58.2208 41.624 58.2208 40.704C58.2208 39.776 58.3128 38.984 58.4968 38.328C58.6888 37.672 58.9928 37.172 59.4088 36.828C59.8248 36.476 60.3728 36.3 61.0528 36.3C61.6928 36.3 62.2248 36.476 62.6488 36.828C63.0728 37.172 63.3888 37.672 63.5968 38.328C63.8048 38.984 63.9088 39.776 63.9088 40.704ZM59.2768 40.704C59.2768 41.488 59.3328 42.14 59.4448 42.66C59.5648 43.18 59.7528 43.572 60.0088 43.836C60.2728 44.092 60.6208 44.22 61.0528 44.22C61.4848 44.22 61.8288 44.092 62.0848 43.836C62.3488 43.58 62.5408 43.192 62.6608 42.672C62.7808 42.144 62.8408 41.488 62.8408 40.704C62.8408 39.92 62.7808 39.272 62.6608 38.76C62.5408 38.24 62.3488 37.852 62.0848 37.596C61.8288 37.332 61.4848 37.2 61.0528 37.2C60.6208 37.2 60.2728 37.332 60.0088 37.596C59.7528 37.852 59.5648 38.24 59.4448 38.76C59.3328 39.272 59.2768 39.92 59.2768 40.704ZM70.74 45H65.076V44.124L67.32 41.856C67.752 41.424 68.116 41.04 68.412 40.704C68.708 40.368 68.932 40.04 69.084 39.72C69.236 39.392 69.312 39.036 69.312 38.652C69.312 38.18 69.172 37.824 68.892 37.584C68.612 37.336 68.248 37.212 67.8 37.212C67.384 37.212 67.016 37.284 66.696 37.428C66.384 37.572 66.064 37.772 65.736 38.028L65.172 37.32C65.396 37.128 65.64 36.956 65.904 36.804C66.176 36.652 66.468 36.532 66.78 36.444C67.1 36.356 67.44 36.312 67.8 36.312C68.336 36.312 68.796 36.404 69.18 36.588C69.564 36.772 69.86 37.036 70.068 37.38C70.284 37.716 70.392 38.12 70.392 38.592C70.392 38.928 70.34 39.248 70.236 39.552C70.132 39.848 69.984 40.14 69.792 40.428C69.6 40.716 69.368 41.008 69.096 41.304C68.824 41.6 68.524 41.908 68.196 42.228L66.408 43.992V44.04H70.74V45ZM77.9912 43.056H76.7432V45H75.7232V43.056H71.6192V42.156L75.6512 36.384H76.7432V42.108H77.9912V43.056ZM75.7232 39.408C75.7232 39.2 75.7232 39.012 75.7232 38.844C75.7312 38.668 75.7392 38.504 75.7472 38.352C75.7552 38.2 75.7592 38.056 75.7592 37.92C75.7672 37.776 75.7752 37.64 75.7832 37.512H75.7352C75.6712 37.664 75.5912 37.828 75.4952 38.004C75.3992 38.18 75.3072 38.328 75.2192 38.448L72.6512 42.108H75.7232V39.408Z" fill="black"/>
<path d="M43.756 68.032H56.244V68.928H43.756V68.032ZM49.454 66.66H50.56C50.14 69.768 49.034 71.448 44.008 72.134C43.924 71.882 43.7 71.462 43.518 71.238C48.222 70.664 49.104 69.292 49.454 66.66ZM50.77 68.382C51.54 70.216 53.43 70.986 56.496 71.168C56.258 71.406 56.006 71.84 55.88 72.134C52.618 71.812 50.728 70.832 49.79 68.522L50.77 68.382ZM47.97 63.398H56.356V64.224H47.97V63.398ZM43.826 60.458L44.624 60.136C45.114 60.85 45.632 61.816 45.814 62.446L44.974 62.824C44.792 62.194 44.316 61.2 43.826 60.458ZM48.292 61.256L49.062 60.976C49.468 61.55 49.916 62.306 50.056 62.81L49.258 63.132C49.104 62.628 48.698 61.844 48.292 61.256ZM50.63 60.962L51.428 60.724C51.82 61.312 52.156 62.11 52.282 62.628L51.428 62.894C51.33 62.376 50.994 61.578 50.63 60.962ZM48.978 64.686L49.706 64.252C50.35 64.728 51.064 65.428 51.386 65.932L50.602 66.436C50.294 65.918 49.608 65.19 48.978 64.686ZM46.318 59.254H47.298V67.346H46.318V59.254ZM53.458 62.698H54.452V66.156C54.452 66.674 54.34 66.912 53.948 67.038C53.556 67.178 52.954 67.192 52.044 67.192C51.988 66.94 51.834 66.59 51.694 66.338C52.408 66.366 53.024 66.366 53.22 66.352C53.402 66.338 53.458 66.296 53.458 66.142V62.698ZM54.508 60.486L55.404 60.92C54.83 61.704 54.13 62.544 53.57 63.118L52.814 62.726C53.374 62.124 54.116 61.172 54.508 60.486ZM43.56 65.176C44.33 64.84 45.464 64.294 46.598 63.734L46.864 64.56C45.884 65.078 44.862 65.624 44.008 66.058L43.56 65.176ZM54.788 59.254L55.488 59.968C53.584 60.388 50.63 60.64 48.166 60.738C48.138 60.528 48.026 60.192 47.928 59.996C50.336 59.87 53.206 59.604 54.788 59.254ZM64.868 62.726H69.46V63.706H64.868V62.726ZM59.366 62.53H64.504V63.468H59.366V62.53ZM58.904 60.052H64.966V61.018H58.904V60.052ZM69.082 62.726H70.062C70.062 62.726 70.048 63.104 70.048 63.244C69.908 69.068 69.782 71.014 69.348 71.588C69.096 71.938 68.83 72.05 68.438 72.092C68.046 72.148 67.416 72.12 66.786 72.092C66.772 71.812 66.674 71.406 66.506 71.126C67.15 71.182 67.738 71.182 68.004 71.182C68.214 71.196 68.34 71.154 68.48 70.972C68.816 70.552 68.956 68.592 69.082 62.964V62.726ZM61.27 65.148H63.748V66.072H61.27V65.148ZM63.342 65.148H64.266C64.266 65.148 64.266 65.456 64.266 65.596C64.098 69.586 63.944 70.958 63.594 71.392C63.384 71.686 63.146 71.784 62.796 71.798C62.502 71.84 61.984 71.84 61.452 71.812C61.438 71.532 61.34 71.168 61.214 70.93C61.718 70.972 62.18 70.986 62.39 70.986C62.572 70.986 62.698 70.958 62.782 70.818C63.048 70.496 63.216 69.152 63.342 65.344V65.148ZM66.478 59.464H67.444C67.43 64.714 67.388 69.516 64.77 72.162C64.602 71.924 64.252 71.616 64 71.462C66.478 69.04 66.464 64.448 66.478 59.464ZM60.892 63.034H61.872C61.802 66.884 61.606 70.272 59.744 72.218C59.59 71.994 59.254 71.672 59.016 71.518C60.71 69.768 60.85 66.576 60.892 63.034ZM58.414 60.052H59.366V65.162C59.366 67.234 59.24 70.16 58.288 72.078C58.106 71.91 57.658 71.658 57.42 71.574C58.33 69.74 58.414 67.108 58.414 65.162V60.052ZM77.44 59.24H78.49V61.382H77.44V59.24ZM72.232 60.836H83.894V63.3H82.872V61.62H73.226V63.3H72.232V60.836ZM75.368 63.034V64H80.772V63.034H75.368ZM74.374 62.362H81.808V64.658H74.374V62.362ZM73.59 59.632L74.514 59.338C74.948 59.744 75.41 60.304 75.648 60.696L74.682 61.074C74.472 60.668 73.996 60.066 73.59 59.632ZM81.57 59.282L82.634 59.59C82.2 60.15 81.682 60.696 81.276 61.06L80.436 60.78C80.814 60.36 81.318 59.716 81.57 59.282ZM74.612 67.374V68.144H81.612V67.374H74.612ZM74.612 68.774V69.572H81.612V68.774H74.612ZM74.612 65.988V66.744H81.612V65.988H74.612ZM73.604 65.33H82.648V70.216H73.604V65.33ZM75.9 70.342L76.894 70.72C75.83 71.364 74.038 71.882 72.624 72.19C72.456 71.98 72.078 71.574 71.854 71.392C73.296 71.182 74.976 70.818 75.9 70.342ZM79.106 70.902L79.904 70.3C81.43 70.664 83.152 71.154 84.16 71.546L83.11 72.148C82.2 71.784 80.66 71.294 79.106 70.902Z" fill="black"/>
<path d="M31.0392 80.18C30.9992 80.45 30.9792 80.74 30.9892 81.01C30.9992 82.12 31.0692 85.61 31.0792 87.48C31.0892 88.01 30.7692 88.29 30.1692 88.29C29.6592 88.29 29.0692 88.26 28.5692 88.23L28.4992 87.4C28.9792 87.48 29.5392 87.52 29.9192 87.52C30.1992 87.52 30.2892 87.39 30.2892 87.12C30.2892 85.69 30.2492 82.12 30.1992 81.01C30.1792 80.63 30.1592 80.39 30.1192 80.18H31.0392ZM25.6692 81.93C25.9592 81.96 26.2892 81.98 26.5892 81.98C27.1192 81.98 32.0692 81.98 32.5792 81.98C32.8392 81.98 33.2292 81.95 33.4292 81.92V82.77C33.1892 82.76 32.8492 82.74 32.5992 82.74C32.1592 82.74 27.0592 82.74 26.6092 82.74C26.2692 82.74 25.9892 82.76 25.6692 82.78V81.93ZM25.3092 86.6C27.4192 85.56 29.2692 83.81 30.0092 82.59H30.4092L30.4192 83.26C29.6592 84.45 27.7992 86.23 25.8792 87.25L25.3092 86.6ZM35.4592 83.67C35.7692 83.7 36.2892 83.73 36.8592 83.73C37.5892 83.73 41.5992 83.73 42.3392 83.73C42.8392 83.73 43.1892 83.69 43.4192 83.67V84.65C43.2092 84.64 42.7892 84.61 42.3492 84.61C41.5892 84.61 37.5992 84.61 36.8592 84.61C36.3092 84.61 35.7792 84.63 35.4592 84.65V83.67ZM46.4792 80.7C46.7592 80.73 47.0592 80.75 47.3792 80.75C47.9592 80.75 50.2892 80.75 50.8492 80.75C51.1292 80.75 51.4892 80.73 51.7792 80.7V81.53C51.4792 81.51 51.1292 81.49 50.8492 81.49C50.2892 81.49 47.9592 81.49 47.3992 81.49C47.0592 81.49 46.7392 81.51 46.4792 81.53V80.7ZM45.2892 83.21C45.5592 83.24 45.8492 83.26 46.1592 83.26C46.7392 83.26 52.1692 83.26 52.6992 83.26C52.9092 83.26 53.2392 83.24 53.4892 83.21V84.04C53.2692 84.02 52.9492 84.01 52.6992 84.01C52.1692 84.01 46.7392 84.01 46.1592 84.01C45.8592 84.01 45.5592 84.02 45.2892 84.04V83.21ZM49.9992 83.61C49.9992 84.87 49.8392 85.91 49.3992 86.75C49.0292 87.42 48.2792 88.14 47.4292 88.57L46.6892 88.03C47.4592 87.7 48.1792 87.13 48.5792 86.49C49.0792 85.7 49.1492 84.72 49.1592 83.62L49.9992 83.61ZM52.2992 79.88C52.5492 80.24 52.9092 80.85 53.1092 81.25L52.5692 81.49C52.3792 81.09 52.0392 80.49 51.7692 80.11L52.2992 79.88ZM53.3892 79.48C53.6592 79.85 54.0392 80.47 54.2292 80.84L53.6992 81.08C53.4792 80.65 53.1492 80.08 52.8692 79.71L53.3892 79.48ZM54.9561 85.43C56.2761 85.11 57.7461 84.41 58.5661 83.91C59.5061 83.34 60.4261 82.51 60.9461 81.88L61.5661 82.48C60.9861 83.1 59.9461 83.97 58.9061 84.6C58.0661 85.1 56.6761 85.76 55.3461 86.17L54.9561 85.43ZM58.4761 84.37L59.3061 84.16V87.91C59.3061 88.21 59.3161 88.63 59.3561 88.78H58.4261C58.4461 88.63 58.4761 88.21 58.4761 87.91V84.37ZM65.1961 81.32C65.4561 81.35 65.8261 81.37 66.0361 81.37H71.5261C71.8361 81.37 72.1461 81.35 72.3861 81.32V82.19C72.1361 82.17 71.8161 82.15 71.5261 82.15H66.0361C65.8361 82.15 65.4461 82.17 65.1961 82.19V81.32ZM68.2861 87.19V81.82H69.1361V87.19H68.2861ZM64.5861 86.7C64.8761 86.74 65.1861 86.76 65.4661 86.76H72.0761C72.3761 86.76 72.6461 86.72 72.8961 86.7V87.6C72.6361 87.57 72.2661 87.57 72.0761 87.57H65.4661C65.1961 87.57 64.8861 87.58 64.5861 87.6V86.7ZM76.0161 80.68C76.7161 81.15 78.0061 82.19 78.5561 82.74L77.9361 83.38C77.4261 82.86 76.1861 81.78 75.4361 81.29L76.0161 80.68ZM75.1561 87.38C76.8961 87.12 78.1961 86.51 79.1461 85.92C80.6961 84.95 81.9061 83.47 82.4861 82.23L82.9661 83.09C82.2861 84.33 81.1261 85.69 79.6161 86.64C78.6061 87.27 77.3461 87.89 75.6761 88.2L75.1561 87.38ZM91.5408 81.32C91.4808 81.4 91.3508 81.62 91.3008 81.75C90.9008 82.74 90.1408 84.14 89.3108 85.06C88.1908 86.31 86.7608 87.5 85.1808 88.22L84.5408 87.55C86.1608 86.93 87.6308 85.73 88.6608 84.59C89.3408 83.82 90.0708 82.63 90.3308 81.8C89.9708 81.8 86.7708 81.8 86.4308 81.8C86.0708 81.8 85.5308 81.84 85.4208 81.85V80.95C85.5508 80.97 86.1208 81.01 86.4308 81.01C86.8208 81.01 89.9108 81.01 90.2908 81.01C90.6108 81.01 90.8808 80.98 91.0408 80.93L91.5408 81.32ZM89.4408 84.54C90.5208 85.44 91.8508 86.84 92.5308 87.67L91.8408 88.28C91.1208 87.33 89.9508 86.05 88.8708 85.1L89.4408 84.54ZM98.1508 79.6H98.9008V81.13H98.1508V79.6ZM94.4308 80.74H102.761V82.5H102.031V81.3H95.1408V82.5H94.4308V80.74ZM96.6708 82.31V83H100.531V82.31H96.6708ZM95.9608 81.83H101.271V83.47H95.9608V81.83ZM95.4008 79.88L96.0608 79.67C96.3708 79.96 96.7008 80.36 96.8708 80.64L96.1808 80.91C96.0308 80.62 95.6908 80.19 95.4008 79.88ZM101.101 79.63L101.861 79.85C101.551 80.25 101.181 80.64 100.891 80.9L100.291 80.7C100.561 80.4 100.921 79.94 101.101 79.63ZM96.1308 85.41V85.96H101.131V85.41H96.1308ZM96.1308 86.41V86.98H101.131V86.41H96.1308ZM96.1308 84.42V84.96H101.131V84.42H96.1308ZM95.4108 83.95H101.871V87.44H95.4108V83.95ZM97.0508 87.53L97.7608 87.8C97.0008 88.26 95.7208 88.63 94.7108 88.85C94.5908 88.7 94.3208 88.41 94.1608 88.28C95.1908 88.13 96.3908 87.87 97.0508 87.53ZM99.3408 87.93L99.9108 87.5C101.001 87.76 102.231 88.11 102.951 88.39L102.201 88.82C101.551 88.56 100.451 88.21 99.3408 87.93Z" fill="black"/>
</svg>
