<svg width="133" height="151" viewBox="0 0 133 151" fill="none" xmlns="http://www.w3.org/2000/svg">
<path fill-rule="evenodd" clip-rule="evenodd" d="M65.0415 96.7358L31.2175 77.2075L0.000255585 131.277L25.0861 126.884L33.8241 150.806L65.0415 96.7358Z" fill="#525252"/>
<path fill-rule="evenodd" clip-rule="evenodd" d="M67.9585 92.8301L101.782 73.3018L133 127.372L107.914 122.978L99.176 146.9L67.9585 92.8301Z" fill="#525252"/>
<circle cx="64.8339" cy="61.5849" r="58.5849" fill="white" stroke="#525252" stroke-width="5.46792"/>
<circle cx="64.4433" cy="61.1942" r="51.1641" stroke="#525252" stroke-width="3.12453"/>
<path d="M51.3018 27.1173H57.5828V26.0063H50.3448V25.3133H58.3968V27.8213H51.3018V27.1173ZM50.8838 27.1173H51.7088C51.5108 28.0523 51.2358 29.1963 51.0158 29.9223L50.2018 29.8013C50.4328 29.0973 50.7188 27.9863 50.8838 27.1173ZM51.0048 28.8333H58.4188V29.5483H50.7848L51.0048 28.8333ZM58.2098 28.8333H59.0458C59.0458 28.8333 59.0348 29.0533 59.0128 29.1743C58.8698 30.7033 58.7158 31.3853 58.4408 31.6603C58.2428 31.8473 58.0448 31.9133 57.7368 31.9243C57.4508 31.9463 56.9118 31.9463 56.3508 31.9243C56.3288 31.6823 56.2408 31.3743 56.1198 31.1543C56.6478 31.2203 57.1758 31.2203 57.3738 31.2203C57.5608 31.2203 57.6708 31.2093 57.7588 31.1213C57.9568 30.9453 58.0888 30.3733 58.2098 28.9433V28.8333ZM54.0188 25.4893H54.8328V32.4083H54.0188V25.4893ZM53.7988 29.0533L54.4478 29.3503C53.4248 30.5933 51.5658 31.7043 49.9378 32.2323C49.8168 32.0343 49.5858 31.7373 49.4098 31.5723C51.0268 31.1213 52.8748 30.1313 53.7988 29.0533ZM50.7298 23.2453H54.2828V23.9163H50.7298V23.2453ZM54.9758 23.2453H59.4198V23.9163H54.9758V23.2453ZM50.9608 22.2443L51.7308 22.4423C51.3128 23.5203 50.6418 24.5983 49.9708 25.2803C49.8278 25.1703 49.4868 24.9393 49.2888 24.8403C49.9818 24.1913 50.5978 23.2233 50.9608 22.2443ZM55.2948 22.2443L56.0758 22.4423C55.6578 23.5423 54.9208 24.5653 54.1728 25.2363C54.0188 25.0933 53.6888 24.8623 53.4798 24.7523C54.2608 24.1583 54.9318 23.2343 55.2948 22.2443ZM51.3458 23.7623L52.0388 23.5093C52.2808 23.9493 52.5558 24.5543 52.6548 24.9283L51.9288 25.2143C51.8408 24.8293 51.5988 24.2243 51.3458 23.7623ZM55.9438 23.7513L56.6368 23.4983C57.0108 23.9383 57.4178 24.5433 57.5938 24.9503L56.8788 25.2473C56.7248 24.8293 56.3288 24.2133 55.9438 23.7513ZM61.4328 31.5283L64.6558 24.5543H60.4208V23.6743H65.6898V24.4223L62.4998 31.5283H61.4328ZM70.3457 26.0283V28.5583H73.0187V26.0283H70.3457ZM69.5647 25.2913H73.8437V29.2843H69.5647V25.2913ZM67.1337 22.7393H76.3297V32.3973H75.4497V23.5753H67.9807V32.3973H67.1337V22.7393ZM67.6067 31.0333H75.9557V31.8143H67.6067V31.0333ZM31.8828 43.5283H30.8928V39.8653H26.8668V43.5283H25.8768V35.6743H26.8668V38.9963H30.8928V35.6743H31.8828V43.5283ZM36.5161 43.5283H35.5261V36.5433H33.0731V35.6743H38.9581V36.5433H36.5161V43.5283ZM43.6074 43.5283L41.0224 36.6423H40.9784C40.9931 36.789 41.0041 36.976 41.0114 37.2033C41.0261 37.4307 41.0371 37.68 41.0444 37.9513C41.0518 38.2153 41.0554 38.4867 41.0554 38.7653V43.5283H40.1424V35.6743H41.6054L44.0254 42.1093H44.0694L46.5334 35.6743H47.9854V43.5283H47.0064V38.6993C47.0064 38.4427 47.0101 38.1897 47.0174 37.9403C47.0248 37.6837 47.0358 37.4453 47.0504 37.2253C47.0651 36.998 47.0761 36.8073 47.0834 36.6533H47.0394L44.4214 43.5283H43.6074ZM50.1219 43.5283V35.6743H51.1119V42.6483H54.5439V43.5283H50.1219ZM57.8485 38.7103C58.3838 38.7103 58.8495 38.802 59.2455 38.9853C59.6415 39.1687 59.9458 39.4327 60.1585 39.7773C60.3785 40.1147 60.4885 40.529 60.4885 41.0203C60.4885 41.563 60.3712 42.0323 60.1365 42.4283C59.9018 42.817 59.5645 43.1177 59.1245 43.3303C58.6918 43.5357 58.1675 43.6383 57.5515 43.6383C57.1482 43.6383 56.7668 43.6017 56.4075 43.5283C56.0555 43.455 55.7585 43.3487 55.5165 43.2093V42.2963C55.7805 42.4577 56.0995 42.586 56.4735 42.6813C56.8548 42.7693 57.2178 42.8133 57.5625 42.8133C57.9512 42.8133 58.2885 42.7547 58.5745 42.6373C58.8678 42.5127 59.0952 42.3257 59.2565 42.0763C59.4178 41.8197 59.4985 41.5007 59.4985 41.1193C59.4985 40.606 59.3408 40.2137 59.0255 39.9423C58.7102 39.6637 58.2115 39.5243 57.5295 39.5243C57.3242 39.5243 57.0895 39.5427 56.8255 39.5793C56.5615 39.616 56.3488 39.6527 56.1875 39.6893L55.7035 39.3813L56.0005 35.6743H59.9385V36.5543H56.8255L56.6385 38.8313C56.7632 38.8093 56.9318 38.7837 57.1445 38.7543C57.3572 38.725 57.5918 38.7103 57.8485 38.7103ZM71.3594 36.1033C71.2714 36.2023 71.1394 36.3673 71.0624 36.4883C70.6224 37.2363 69.5774 38.6553 68.3234 39.5243L67.5864 38.9413C68.6094 38.3583 69.6434 37.1703 69.9954 36.4883C69.2254 36.4883 64.2534 36.4883 63.7254 36.4883C63.3184 36.4883 62.9114 36.5103 62.4824 36.5433V35.5533C62.8674 35.6083 63.3184 35.6523 63.7254 35.6523C64.2534 35.6523 69.3904 35.6523 70.0504 35.6523C70.2594 35.6523 70.6554 35.6193 70.8094 35.5753L71.3594 36.1033ZM66.9594 37.5443C66.9594 40.5253 66.6954 42.5383 63.8904 43.9463L63.0874 43.2863C63.3844 43.1873 63.7694 43.0003 64.0774 42.7913C65.7714 41.7463 66.0134 40.1843 66.0134 38.3473C66.0134 38.0833 66.0134 37.8413 65.9694 37.5443H66.9594ZM81.7544 36.1913C81.6994 36.3013 81.6224 36.5983 81.6114 36.7083C81.4134 38.0063 81.1824 39.5793 80.3794 40.8223C79.4884 42.2193 77.9924 43.3413 76.2214 43.9133L75.4734 43.1653C77.0904 42.7253 78.6634 41.7683 79.5544 40.3603C80.1814 39.3923 80.4894 37.9843 80.5994 36.6863C79.9834 36.6863 75.3194 36.6863 74.5384 36.6863C74.5384 36.9943 74.5384 38.5343 74.5384 38.8863C74.5384 39.0403 74.5384 39.3153 74.5604 39.5903H73.5704C73.5924 39.3263 73.6034 39.0953 73.6034 38.8863C73.6034 38.5343 73.6034 37.0053 73.6034 36.5323C73.6034 36.2793 73.5924 36.0373 73.5704 35.8063C73.8564 35.8283 74.2634 35.8283 74.7364 35.8283C75.1104 35.8283 79.7634 35.8283 80.3904 35.8283C80.6214 35.8283 80.8854 35.8173 81.0834 35.7733L81.7544 36.1913ZM84.2294 38.7653C84.5704 38.7983 85.1424 38.8313 85.7694 38.8313C86.5724 38.8313 90.9834 38.8313 91.7974 38.8313C92.3474 38.8313 92.7324 38.7873 92.9854 38.7653V39.8433C92.7544 39.8323 92.2924 39.7993 91.8084 39.7993C90.9724 39.7993 86.5834 39.7993 85.7694 39.7993C85.1644 39.7993 84.5814 39.8213 84.2294 39.8433V38.7653ZM101.334 35.6193C101.609 36.0153 102.082 36.7523 102.335 37.2803L101.708 37.5663C101.433 36.9833 101.081 36.3783 100.718 35.8833L101.334 35.6193ZM102.654 35.0693C102.951 35.4543 103.435 36.1803 103.688 36.6973L103.072 37.0053C102.786 36.4223 102.423 35.8393 102.06 35.3553L102.654 35.0693ZM97.4734 42.7033C97.4734 42.0983 97.4734 37.2363 97.4734 36.3123C97.4734 35.9933 97.4404 35.5093 97.3854 35.1683H98.4634C98.4304 35.4983 98.3864 35.9823 98.3864 36.3123C98.3864 38.0283 98.3974 42.1863 98.3974 42.7033C98.3974 43.0553 98.4194 43.6493 98.4634 44.0123H97.3964C97.4514 43.6603 97.4734 43.1213 97.4734 42.7033ZM98.1884 38.0503C99.6514 38.4683 101.862 39.3153 103.083 39.9203L102.698 40.8443C101.444 40.1733 99.3874 39.3923 98.1884 39.0183V38.0503Z" fill="black"/>
<path d="M43.4759 62.6787H51.434V64.8158H43.4759V62.6787ZM50.3654 62.6787H52.5307C52.5307 67.7123 53.1494 78.3982 64.2571 84.9784C63.779 85.344 62.9354 86.2438 62.5417 86.75C51.2934 79.9448 50.3654 67.9654 50.3654 62.6787ZM49.5781 68.1903L51.9683 68.6403C49.9436 77.2171 46.2317 83.1506 40.017 86.8063C39.6233 86.3563 38.6672 85.4846 38.1048 85.0909C44.3476 81.8289 47.8627 76.1485 49.5781 68.1903ZM78.1487 60.9633H80.2578V65.2658H78.1487V60.9633ZM67.6878 64.1691H91.1124V69.1183H89.0596V65.7438H69.6844V69.1183H67.6878V64.1691ZM73.9869 68.584V70.5243H84.8415V68.584H73.9869ZM71.9903 67.2342H86.9224V71.846H71.9903V67.2342ZM70.4155 61.7507L72.2715 61.1601C73.1432 61.9756 74.0712 63.1005 74.5493 63.8878L72.609 64.6471C72.1871 63.8316 71.231 62.6224 70.4155 61.7507ZM86.4444 61.0477L88.5815 61.6663C87.7098 62.7911 86.6693 63.8878 85.8538 64.619L84.1666 64.0566C84.9258 63.2129 85.9382 61.9194 86.4444 61.0477ZM72.4683 77.3014V78.8481H86.5287V77.3014H72.4683ZM72.4683 80.1135V81.7164H86.5287V80.1135H72.4683ZM72.4683 74.5175V76.036H86.5287V74.5175H72.4683ZM70.4437 73.1958H88.6097V83.01H70.4437V73.1958ZM75.0555 83.263L77.052 84.0223C74.9149 85.3159 71.3154 86.3563 68.4752 86.975C68.1378 86.5532 67.3785 85.7377 66.9286 85.3721C69.825 84.9503 73.1995 84.2191 75.0555 83.263ZM81.4951 84.3879L83.098 83.1787C86.1632 83.9098 89.622 84.894 91.6467 85.6814L89.5376 86.8906C87.7098 86.1595 84.6165 85.1753 81.4951 84.3879Z" fill="black"/>
</svg>
