<svg width="337" height="184" viewBox="0 0 337 184" fill="none" xmlns="http://www.w3.org/2000/svg">
<g clip-path="url(#clip0_1_63)">
<path d="M91.6599 120.265C89.489 120.265 87.7129 118.488 87.7129 116.316V60.359C87.7129 58.187 89.489 56.41 91.6599 56.41C93.8307 56.41 95.6068 58.187 95.6068 60.359V116.316C95.6068 118.488 93.8307 120.265 91.6599 120.265Z" fill="#231815"/>
<path d="M91.6598 51.9871C85.3447 51.9871 80.2136 46.8534 80.2136 40.535C80.2136 34.2166 85.3447 29.0829 91.6598 29.0829C97.975 29.0829 103.106 34.2166 103.106 40.535C103.106 46.8534 97.975 51.9871 91.6598 51.9871ZM91.6598 36.9414C89.6863 36.9414 88.1075 38.5605 88.1075 40.4955C88.1075 42.4305 89.6863 44.0496 91.6598 44.0496C93.6333 44.0496 95.2121 42.47 95.2121 40.4955C95.2121 38.521 93.6333 36.9414 91.6598 36.9414Z" fill="#231815"/>
<path d="M324.57 180.883C322.399 180.883 320.623 179.106 320.623 176.934V60.3195C320.623 58.1475 322.399 56.3705 324.57 56.3705C326.741 56.3705 328.517 58.1475 328.517 60.3195V176.894C328.517 179.066 326.741 180.843 324.57 180.843V180.883Z" fill="#231815"/>
<path d="M324.57 51.9871C318.255 51.9871 313.124 46.8534 313.124 40.535C313.124 34.2166 318.255 29.0829 324.57 29.0829C330.885 29.0829 336.016 34.2166 336.016 40.535C336.016 46.8534 330.885 51.9871 324.57 51.9871ZM324.57 36.9414C322.596 36.9414 321.018 38.5605 321.018 40.4955C321.018 42.4305 322.596 44.0496 324.57 44.0496C326.543 44.0496 328.122 42.47 328.122 40.4955C328.122 38.521 326.504 36.9414 324.57 36.9414Z" fill="#231815"/>
<path d="M4.35309 178.79C2.18226 178.79 0.406128 177.013 0.406128 174.841V62.8863C0.406128 60.7144 2.18226 58.9373 4.35309 58.9373C6.52392 58.9373 8.30005 60.7144 8.30005 62.8863V174.841C8.30005 177.013 6.52392 178.79 4.35309 178.79Z" fill="#231815"/>
<path d="M4.74772 122.832C3.72151 122.832 2.73477 122.437 1.94538 121.687C0.406065 120.107 0.406065 117.62 1.94538 116.079L56.6897 61.3067C58.229 59.7666 60.7156 59.7666 62.2549 61.3067C63.7943 62.8468 63.7943 65.3347 62.2549 66.8748L7.55006 121.648C6.76067 122.437 5.77393 122.793 4.74772 122.793V122.832Z" fill="#231815"/>
<path d="M59.4921 177.565C58.4659 177.565 57.4791 177.171 56.6897 176.42L1.94538 121.648C0.406065 120.107 0.406065 117.62 1.94538 116.079C3.48469 114.539 5.97128 114.539 7.51059 116.079L62.2549 170.852C63.7943 172.392 63.7943 174.88 62.2549 176.42C61.4655 177.21 60.4788 177.565 59.4526 177.565H59.4921Z" fill="#231815"/>
<path d="M92.8834 183.134C75.28 183.134 60.9525 168.799 60.9525 151.186C60.9525 133.574 75.28 119.239 92.8834 119.239C110.487 119.239 124.814 133.574 124.814 151.186C124.814 168.799 110.487 183.134 92.8834 183.134ZM92.8834 127.176C79.6216 127.176 68.8464 137.957 68.8464 151.226C68.8464 164.494 79.6216 175.275 92.8834 175.275C106.145 175.275 116.92 164.494 116.92 151.226C116.92 137.957 106.145 127.176 92.8834 127.176Z" fill="#231815"/>
<path d="M208.095 178.79C205.924 178.79 204.148 177.013 204.148 174.841V62.8863C204.148 60.7144 205.924 58.9373 208.095 58.9373C210.266 58.9373 212.042 60.7144 212.042 62.8863V174.841C212.042 177.013 210.266 178.79 208.095 178.79Z" fill="#231815"/>
<path d="M180.111 178.197C162.508 178.197 148.18 163.862 148.18 146.25C148.18 128.637 162.508 114.302 180.111 114.302C197.715 114.302 212.042 128.637 212.042 146.25C212.042 163.862 197.715 178.197 180.111 178.197ZM180.111 122.2C166.849 122.2 156.074 132.981 156.074 146.25C156.074 159.518 166.849 170.299 180.111 170.299C193.373 170.299 204.148 159.518 204.148 146.25C204.148 132.981 193.373 122.2 180.111 122.2Z" fill="#231815"/>
<path d="M280.68 180.764C278.509 180.764 276.733 178.987 276.733 176.815V120.858C276.733 118.686 278.509 116.909 280.68 116.909C282.851 116.909 284.627 118.686 284.627 120.858V176.815C284.627 178.987 282.851 180.764 280.68 180.764Z" fill="#D9D9D9"/>
<path d="M252.696 180.883C235.092 180.883 220.765 166.548 220.765 148.935C220.765 131.323 235.092 116.988 252.696 116.988C270.299 116.988 284.627 131.323 284.627 148.935C284.627 166.548 270.299 180.883 252.696 180.883ZM252.696 124.886C239.434 124.886 228.659 135.667 228.659 148.935C228.659 162.204 239.434 172.985 252.696 172.985C265.958 172.985 276.733 162.204 276.733 148.935C276.733 135.667 265.958 124.886 252.696 124.886Z" fill="#D9D9D9"/>
<path d="M238.329 120.265C236.158 120.265 234.382 118.488 234.382 116.316V4.36209C234.382 2.19014 236.158 0.413086 238.329 0.413086C240.5 0.413086 242.276 2.19014 242.276 4.36209V116.316C242.276 118.488 240.5 120.265 238.329 120.265Z" fill="#231815"/>
<path d="M266.313 41.3248H210.384C208.214 41.3248 206.438 39.5477 206.438 37.3758C206.438 35.2038 208.214 33.4268 210.384 33.4268H266.313C268.484 33.4268 270.26 35.2038 270.26 37.3758C270.26 39.5477 268.484 41.3248 266.313 41.3248Z" fill="#231815"/>
<path d="M324.53 120.186C322.36 120.186 320.583 118.409 320.583 116.237V60.28C320.583 58.108 322.36 56.331 324.53 56.331C326.701 56.331 328.477 58.108 328.477 60.28V116.237C328.477 118.409 326.701 120.186 324.53 120.186Z" fill="#D9D9D9" stroke="#D9D9D9" stroke-width="0.1"/>
<path d="M296.547 120.305C278.943 120.305 264.616 105.97 264.616 88.3576C264.616 70.7451 278.943 56.4102 296.547 56.4102C314.15 56.4102 328.478 70.7451 328.478 88.3576C328.478 105.97 314.15 120.305 296.547 120.305ZM296.547 64.3477C283.285 64.3477 272.51 75.1285 272.51 88.3971C272.51 101.666 283.285 112.447 296.547 112.447C309.808 112.447 320.584 101.666 320.584 88.3971C320.584 75.1285 309.808 64.3477 296.547 64.3477Z" fill="#D9D9D9"/>
<path d="M4.35309 120.265C2.18226 120.265 0.406128 118.488 0.406128 116.316V4.36209C0.406128 2.19014 2.18226 0.413086 4.35309 0.413086C6.52392 0.413086 8.30005 2.19014 8.30005 4.36209V116.316C8.30005 118.488 6.52392 120.265 4.35309 120.265Z" fill="#231815"/>
<path d="M61.6235 120.265C59.4526 120.265 57.6765 118.488 57.6765 116.316V4.36209C57.6765 2.19014 59.4526 0.413086 61.6235 0.413086C63.7943 0.413086 65.5704 2.19014 65.5704 4.36209V116.316C65.5704 118.488 63.7943 120.265 61.6235 120.265Z" fill="#231815"/>
<path d="M60.8341 64.2685H5.14252C2.97169 64.2685 1.19556 62.4914 1.19556 60.3195C1.19556 58.1475 2.97169 56.3705 5.14252 56.3705H60.8341C63.005 56.3705 64.7811 58.1475 64.7811 60.3195C64.7811 62.4914 63.005 64.2685 60.8341 64.2685Z" fill="#231815"/>
<path d="M208.095 120.147C205.924 120.147 204.148 118.37 204.148 116.198V60.2405C204.148 58.0686 205.924 56.2915 208.095 56.2915C210.266 56.2915 212.042 58.0686 212.042 60.2405V116.198C212.042 118.37 210.266 120.147 208.095 120.147Z" fill="#D9D9D9" stroke="#D9D9D9" stroke-width="0.1"/>
<path d="M180.111 120.266C162.508 120.266 148.18 105.931 148.18 88.3182C148.18 70.7056 162.508 56.3707 180.111 56.3707C197.715 56.3707 212.042 70.7056 212.042 88.3182C212.042 105.931 197.715 120.266 180.111 120.266ZM180.111 64.2687C166.849 64.2687 156.074 75.0495 156.074 88.3182C156.074 101.587 166.849 112.368 180.111 112.368C193.373 112.368 204.148 101.587 204.148 88.3182C204.148 75.0495 193.373 64.2687 180.111 64.2687Z" fill="#D9D9D9"/>
<path d="M121.893 120.265C119.723 120.265 117.947 118.488 117.947 116.316V60.3591C117.947 58.1871 119.723 56.4101 121.893 56.4101C124.064 56.4101 125.84 58.1871 125.84 60.3591V116.316C125.84 118.488 124.064 120.265 121.893 120.265Z" fill="#231815"/>
<path d="M121.893 92.2669C119.723 92.2669 117.947 90.4899 117.947 88.3179C117.947 70.7054 132.274 56.3705 149.877 56.3705C152.048 56.3705 153.824 58.1475 153.824 60.3195C153.824 62.4914 152.048 64.2685 149.877 64.2685C136.616 64.2685 125.84 75.0493 125.84 88.3179C125.84 90.4899 124.064 92.2669 121.893 92.2669Z" fill="#231815"/>
</g>
<defs>
<clipPath id="clip0_1_63">
<rect width="335.65" height="182.72" fill="white" transform="translate(0.406128 0.413086)"/>
</clipPath>
</defs>
</svg>
